<?xml version="1.0" encoding="utf-8"?>
<!-- Svg Vector Icons : http://www.onlinewebfonts.com/icon -->
<!DOCTYPE svg PUBLIC "-//W3C//DTD SVG 1.1//EN" "http://www.w3.org/Graphics/SVG/1.1/DTD/svg11.dtd">
<svg version="1.1" xmlns="http://www.w3.org/2000/svg" xmlns:xlink="http://www.w3.org/1999/xlink" x="0px" y="0px" viewBox="0 0 256 256" enable-background="new 0 0 256 256" xml:space="preserve">
<metadata> Svg Vector Icons : http://www.onlinewebfonts.com/icon </metadata>
<g><g><g><g><path fill="#000000" d="M109.7,154.2c-2.8-4.3-6.4-8-9.5-12.2c-2.1-2.9-4.4-5.9-5.7-9.2c-3.9-10.7-2.1-20.7,5.4-29.1c3.6-4.1,7.9-7.6,11.9-11.4c5.6-5.3,9.3-11.4,9.6-19.5c0.3-8.6-3.9-15.7-11.7-17.8c-3.9-1.1-12.2-1.7-12.2-1.5c-11.8,0.6-23.2,3.1-33.6,9C54.5,67.9,47.7,75.7,45.8,87c-1.6,9.5-0.7,19,2.6,28c3,8,6.8,15.7,10.3,23.6c4.2,9.2,6.9,18.7,7.2,28.9c0,2.6,0.1,5.3,0.6,7.9c1.6,8.6,5.7,15.6,13.8,19.3c4.9,2.3,10,1.8,15.1,1.1c9.6-1.4,15.9-7.1,17.8-16.1C115.2,170.7,114.8,162,109.7,154.2z"/><path fill="#000000" d="M123.4,40.3c3.6-4.4,5-9.5,5.1-15.7c-0.1-0.9-0.2-2.4-0.5-3.9c-0.2-1.3-0.6-2.5-1.1-3.7c-2.9-7.7-10-9.3-15.8-3.6c-5.7,5.7-7.6,18.1-3.8,25.3C111.1,45.8,118.3,46.6,123.4,40.3z"/><path fill="#000000" d="M96,39.8c4.4-4.4,5.4-13.1,2.1-18.4c-2.9-4.7-8-5-11.4-0.5c-2.2,2.9-3.2,6.3-3.1,9.9c0,3.2,0.7,5.8,2.2,8C88.5,42.7,92.7,43.1,96,39.8z"/><path fill="#000000" d="M76.9,42.6c1.8-2.3,2.4-5,2.5-7.8c-0.1-2.9-0.7-5.7-2.6-8c-2.4-2.8-5.7-2.8-8,0c-3.4,4-3.4,11.8-0.1,15.8C71,45.6,74.4,45.6,76.9,42.6z"/><path fill="#000000" d="M64.2,47.9c2-3.6,0.8-9.7-2.4-12.2c-2.4-1.9-5.3-1.4-6.6,1.4c-0.6,1.3-0.8,2.8-1.2,4.2c0.3,3.2,1.2,6,3.7,8C60,51.2,62.7,50.5,64.2,47.9z"/><path fill="#000000" d="M53.6,57.4c0.9-1.4,1.3-3.2,1.9-4.9c-0.6-1.7-1-3.3-1.8-4.6c-1.4-2.2-3.9-2.2-5.6-0.2c-2.1,2.5-2.2,7.2-0.3,9.8C49.5,59.7,52.1,59.8,53.6,57.4z"/><path fill="#000000" d="M161.1,105.1c0-0.2-8.1-1.8-12.2-1.8c-8,0-14,5.7-16,14.1c-1.9,7.9,0,14.8,4.1,21.4c2.8,4.7,6,9.2,8.4,14.2c4.9,10.1,4.1,20.3-2.5,29.5c-2.1,2.9-5.1,5.2-7.9,7.4c-4,3.2-8.5,5.8-12.4,9.2c-7,6.1-9.7,14.4-10.2,23.5c-0.6,9.2,4,16.3,12.9,20.2c4.7,2.1,9.6,3.9,14.9,3c8.8-1.5,14.5-7.1,18.4-15c1.2-2.3,2-4.9,2.7-7.4c2.9-9.8,8.1-18.2,14.6-26c5.5-6.6,11.2-13,16.2-19.9c5.6-7.8,9-16.7,10-26.3c1.2-11.4-3.3-20.7-11-28.5C182.6,114.2,172.3,108.8,161.1,105.1z"/><path fill="#000000" d="M155.6,88.3c5.6-6,7.1-18.4,3.1-25.4c-4-7-11.3-7.3-16.2-0.7c-0.7,1-1.4,2.1-2,3.3c-0.7,1.3-1.2,2.8-1.5,3.7c-1.5,6-1.5,11.4,0.8,16.5C143,93,150.1,94.1,155.6,88.3z"/><path fill="#000000" d="M176.4,94.1c2-1.7,3.4-4.1,4.2-7.1c1-3.5,1-7-0.4-10.4c-2.1-5.2-7.1-6.3-11.1-2.5c-4.6,4.2-5.9,12.9-2.8,18.3C168.6,96.4,172.8,97.1,176.4,94.1z"/><path fill="#000000" d="M191.9,102.4c4.3-3,6.3-10.5,4.1-15.3c-1.5-3.3-4.7-4.2-7.7-2.1c-2.5,1.7-3.8,4.2-4.7,7c-0.6,2.8-0.8,5.5,0.3,8.2C185.5,103.7,188.8,104.6,191.9,102.4z"/><path fill="#000000" d="M194.8,108.7c0.7,2.9,3.2,4.2,5.9,3c2.9-1.3,4.5-3.7,5.7-6.7c0-1.4,0.2-2.9,0-4.3c-0.6-3.1-3.1-4.3-6-3.1C196.6,99.1,193.8,104.7,194.8,108.7z"/><path fill="#000000" d="M210.4,112.7c-1.1-2.4-3.5-3.1-5.4-1.3c-1.2,1.1-1.9,2.6-3,4c0.1,1.9,0,3.7,0.5,5.3c0.8,2.7,3.4,3.3,5.6,1.5C210.6,120.2,211.7,115.6,210.4,112.7z"/></g></g><g></g><g></g><g></g><g></g><g></g><g></g><g></g><g></g><g></g><g></g><g></g><g></g><g></g><g></g><g></g></g></g>
</svg>