<svg xmlns="http://www.w3.org/2000/svg" version="1.1" xmlns:xlink="http://www.w3.org/1999/xlink" xmlns:svgjs="http://svgjs.dev/svgjs" width="1500" height="1500" viewBox="0 0 1500 1500"><rect width="1500" height="1500" fill="#ffffff"></rect><g transform="matrix(0.6666666666666666,0,0,0.6666666666666666,250,250.00126985484843)"><svg viewBox="0 0 280 280" data-background-color="#ffffff" preserveAspectRatio="xMidYMid meet" height="1500" width="1500" xmlns="http://www.w3.org/2000/svg" xmlns:xlink="http://www.w3.org/1999/xlink"><g id="tight-bounds" transform="matrix(1,0,0,1,0,0.00007867836717423415)"><svg viewBox="0 0 280 280" height="280" width="280"><g><svg viewBox="0 0 280 280" height="280" width="280"><g><svg viewBox="0 0 280 280" height="280" width="280"><g id="textblocktransform"><svg viewBox="0 0 280 280" height="280" width="280" id="textblock"><g><svg viewBox="0 0 280 280" height="280" width="280"><g transform="matrix(1,0,0,1,57.50420886156945,57.50420886156945)"><svg viewBox="0 0 164.9915822768611 164.9915822768611" height="164.9915822768611" width="164.9915822768611"><g id="icon-0"><circle r="82" cx="82.49579113843055" cy="82.49579113843055" fill="#000000" data-fill-palette-color="accent"></circle><svg xmlns="http://www.w3.org/2000/svg" xmlns:xlink="http://www.w3.org/1999/xlink" version="1.1" x="24.74873734152917" y="24.748737341529164" viewBox="8.6 11.018861169915807 82.9 77.98113883008419" enable-background="new 0 0 100 100" xml:space="preserve" height="115.49410759380275" width="115.49410759380275" class="icon-xg-0" data-fill-palette-color="quaternary" id="xg-0"><g display="none" fill="#ffffff" data-fill-palette-color="quaternary"><path display="inline" d="M70.6 75.1L60 42.1c3.6-2.9 5.9-7.3 5.9-12.3C65.9 21.1 58.8 14 50 14c-8.7 0-15.9 7.1-15.9 15.8 0 5 2.3 9.4 5.9 12.3l-10.6 33c0 0.2-0.1 0.3-0.1 0.5 0 3 2.3 5.7 6.5 7.7C39.6 85 44.7 86 50 86s10.4-1 14.2-2.7c4.2-1.9 6.5-4.7 6.5-7.7C70.6 75.4 70.6 75.2 70.6 75.1zM37.2 29.8c0-7 5.7-12.7 12.8-12.7s12.8 5.7 12.8 12.7S57.1 42.5 50 42.5 37.2 36.8 37.2 29.8zM50 82.9c-10.2 0-17.3-3.7-17.6-7.2l10.3-31.9c2.2 1.1 4.7 1.8 7.3 1.8s5.1-0.6 7.3-1.8l10.3 31.9C67.3 79.2 60.2 82.9 50 82.9z" fill="#ffffff" data-fill-palette-color="quaternary"></path></g><g display="none" fill="#ffffff" data-fill-palette-color="quaternary"><path display="inline" d="M91.4 70.4l-7-21.7c2.4-2 3.9-5 3.9-8.4 0-6.1-5-11-11.1-11s-11.1 4.9-11.1 11c0 3.3 1.5 6.3 3.9 8.4l-4 12.2-6.1-18.8c3.6-2.9 5.9-7.3 5.9-12.3C65.9 21.1 58.8 14 50 14c-8.7 0-15.9 7.1-15.9 15.8 0 5 2.3 9.4 5.9 12.3l-6 18.8-3.9-12.2c2.4-2 3.9-5 3.9-8.4 0-6.1-5-11-11.1-11s-11.1 4.9-11.1 11c0 3.3 1.5 6.3 3.9 8.4l-7 21.7c0 0.2-0.1 0.3-0.1 0.5 0 4.3 6.1 7.5 14.3 7.5 2.4 0 4.8-0.3 6.8-0.9 0.8 2.2 2.9 4.2 6.2 5.8C39.6 85 44.7 86 50 86s10.4-1 14.2-2.7c3.3-1.5 5.4-3.5 6.2-5.8 2.1 0.6 4.4 0.9 6.8 0.9 8.1 0 14.3-3.2 14.3-7.5C91.4 70.7 91.4 70.5 91.4 70.4zM69.1 40.4c0-4.4 3.6-8 8-8s8 3.6 8 8-3.6 8-8 8S69.1 44.8 69.1 40.4zM37.2 29.8c0-7 5.7-12.7 12.8-12.7s12.8 5.7 12.8 12.7S57.1 42.5 50 42.5 37.2 36.8 37.2 29.8zM14.8 40.4c0-4.4 3.6-8 8-8s8 3.6 8 8-3.6 8-8 8C18.4 48.3 14.8 44.8 14.8 40.4zM11.6 71l6.6-20.6c1.4 0.6 2.9 1 4.6 1 1.6 0 3.2-0.4 4.5-1l5 15.5-2.7 8.3c-2 0.7-4.4 1-6.9 1C16.1 75.3 11.9 72.9 11.6 71zM50 82.9c-10.2 0-17.3-3.7-17.6-7.2l10.3-31.9c2.2 1.1 4.7 1.8 7.3 1.8s5.1-0.6 7.3-1.8l10.3 31.9C67.3 79.2 60.2 82.9 50 82.9zM77.2 75.3c-2.5 0-4.9-0.4-6.9-1L67.6 66l5-15.5c1.4 0.6 2.9 1 4.6 1 1.6 0 3.2-0.4 4.5-1L88.4 71C88.1 72.9 83.9 75.3 77.2 75.3z" fill="#ffffff" data-fill-palette-color="quaternary"></path></g><g display="none" fill="#ffffff" data-fill-palette-color="quaternary"><path display="inline" d="M82.6 58.2h0.8c0.7 0 1.2-0.5 1.2-1.2v-4.1c0-0.7-0.5-1.2-1.2-1.2h-0.8c-0.1 0-0.3 0-0.4 0.1-0.4-3.1-3.1-5.5-6.4-5.5-1.8 0-3.4 0.7-4.6 1.9l-0.8-2.3c2.4-2 3.9-5 3.9-8.4 0-6.1-5-11-11.1-11s-11.1 4.9-11.1 11c0 3.3 1.5 6.3 3.9 8.4L52.1 58 46 39.2c3.6-2.9 5.9-7.3 5.9-12.3 0-8.7-7.1-15.8-15.9-15.8-8.7 0-15.9 7.1-15.9 15.8 0 5 2.3 9.4 5.9 12.3l-10.6 33c0 0.2-0.1 0.3-0.1 0.5 0 3 2.3 5.7 6.5 7.7 1.4 0.7 3 1.2 4.7 1.6v5.5c0 0.8 0.7 1.5 1.5 1.5s1.5-0.7 1.5-1.5v-4.8c2 0.3 4.2 0.5 6.4 0.5 5.3 0 10.4-1 14.2-2.7 3.3-1.5 5.4-3.5 6.2-5.8 2.1 0.6 4.4 0.9 6.8 0.9 1.3 0 2.5-0.1 3.7-0.2v0.1c0 0.7 0.5 1.2 1.2 1.2h1c0.1 0 0.3 0 0.4-0.1 0.4 3.1 3.1 5.5 6.4 5.5 3.2 0 5.9-2.4 6.4-5.5 0.1 0 0.3 0.1 0.4 0.1h0.8c0.7 0 1.2-0.5 1.2-1.2v-4.1c0-0.7-0.5-1.2-1.2-1.2h-0.8c-0.1 0-0.2 0-0.3 0.1V58.2C82.3 58.2 82.4 58.2 82.6 58.2zM72.4 56.5h6.8v15.1h-6.8V56.5zM75.8 49.3c1.9 0 3.4 1.5 3.4 3.4v0.7h-6.8v-0.7C72.4 50.8 73.9 49.3 75.8 49.3zM55.2 37.4c0-4.4 3.6-8 8-8s8 3.6 8 8-3.6 8-8 8S55.2 41.8 55.2 37.4zM23.2 26.9c0-7 5.7-12.7 12.8-12.7s12.8 5.7 12.8 12.7S43.1 39.6 36 39.6C29 39.6 23.2 33.9 23.2 26.9zM36 80c-2.3 0-4.4-0.2-6.4-0.5V61.6c0-2.9 2.4-5.2 5.2-5.2 2.9 0 5.2 2.4 5.2 5.2 0 0.8 0.7 1.5 1.5 1.5s1.5-0.7 1.5-1.5c0-4.6-3.7-8.3-8.3-8.3s-8.3 3.7-8.3 8.3v17.2c-4.9-1.4-7.9-3.7-8.1-5.9L28.6 41c2.2 1.1 4.7 1.8 7.3 1.8s5.1-0.6 7.3-1.8l7.2 22.3c0 0.2 0.1 0.3 0.2 0.5l2.9 9.1C53.3 76.2 46.2 80 36 80zM68.1 69.9c-0.7 0-1.2 0.5-1.2 1.2v1c-0.1 0-0.2 0-0.3 0-1.1 0.2-2.2 0.2-3.4 0.2-2.5 0-4.9-0.4-6.9-1L53.7 63l5-15.5c1.4 0.6 2.9 1 4.6 1 1.6 0 3.2-0.4 4.5-1l1.4 4.2c-0.1 0-0.1 0-0.2 0h-0.8c-0.7 0-1.2 0.5-1.2 1.2V57c0 0.7 0.5 1.2 1.2 1.2H69c0.1 0 0.2 0 0.3-0.1v11.8c-0.1 0-0.2-0.1-0.3-0.1L68.1 69.9 68.1 69.9zM75.8 78.8c-1.9 0-3.4-1.5-3.4-3.4v-0.7h6.8v0.7C79.2 77.3 77.6 78.8 75.8 78.8z" fill="#ffffff" data-fill-palette-color="quaternary"></path></g><g display="none" fill="#ffffff" data-fill-palette-color="quaternary"><g display="inline" fill="#ffffff" data-fill-palette-color="quaternary"><path d="M71.5 44l-6.1-3.5c0-1-0.6-1.8-1.3-2.3V29c0-0.8-0.7-1.5-1.5-1.5s-1.5 0.7-1.5 1.5v9.2c-0.8 0.5-1.3 1.4-1.3 2.4 0 1.6 1.3 2.9 2.9 2.9 0.5 0 0.9-0.1 1.3-0.3l6.1 3.5c0.2 0.1 0.5 0.2 0.8 0.2 0.5 0 1-0.3 1.3-0.8C72.5 45.4 72.3 44.5 71.5 44z" fill="#ffffff" data-fill-palette-color="quaternary"></path><path d="M62.6 21.9c-3 0-5.9 0.7-8.5 2C51.7 18.1 46 14 39.3 14c-8.7 0-15.9 7.1-15.9 15.8 0 5 2.3 9.4 5.9 12.3l-10.6 33c0 0.2-0.1 0.3-0.1 0.5 0 3 2.3 5.7 6.5 7.7C29 85 34 86 39.3 86s10.4-1 14.2-2.7c4.2-1.9 6.5-4.7 6.5-7.7 0-0.2 0-0.3-0.1-0.5l-5.7-17.7c2.6 1.3 5.4 2 8.3 2 10.3 0 18.7-8.4 18.7-18.7C81.3 30.3 72.9 21.9 62.6 21.9zM26.5 29.8c0-7 5.7-12.7 12.8-12.7 5.9 0 10.8 4 12.3 9.3 0 0.1 0 0.2 0.1 0.3 0.2 1 0.4 2 0.4 3.1 0 7-5.7 12.7-12.8 12.7C32.3 42.5 26.5 36.8 26.5 29.8zM39.3 82.9c-10.2 0-17.3-3.7-17.6-7.2L32 43.8c2.2 1.1 4.7 1.8 7.3 1.8s5.1-0.6 7.3-1.8l3.3 10.3c0 0.1 0 0.2 0.1 0.3l6.9 21.4C56.6 79.2 49.5 82.9 39.3 82.9zM62.6 56.3c-3.6 0-7-1.2-9.8-3.4l-3.5-10.8c3.6-2.9 5.9-7.3 5.9-12.3 0-1-0.1-2-0.3-2.9 2.3-1.3 4.9-2 7.6-2 8.6 0 15.7 7 15.7 15.7S71.2 56.3 62.6 56.3z" fill="#ffffff" data-fill-palette-color="quaternary"></path></g></g><g display="none" fill="#ffffff" data-fill-palette-color="quaternary"><path display="inline" d="M70.6 78.2L59.9 45c3.6-2.9 5.9-7.3 5.9-12.3 0-2.4-0.6-4.8-1.6-6.9 0-0.1 0.1-0.3 0.1-0.4V12.6c0-0.6-0.3-1.1-0.8-1.4-0.5-0.3-1.1-0.2-1.6 0.1-0.4 0.3-1.8 0.9-2.6 1.3-0.6 0.2-0.9 0.8-0.9 1.4 0 2.3-0.9 3.9-2.2 3.9-1.5 0-2.2-0.8-2.2-2.5 0-0.4-0.2-0.8-0.5-1.1s-0.7-0.4-1.1-0.4c-1.5 0.1-3 0.1-4.6 0-0.4 0-0.8 0.1-1.1 0.4-0.3 0.3-0.5 0.7-0.5 1.1 0 1.8-0.7 2.5-2.2 2.5-1.3 0-2.2-1.7-2.2-3.9 0-0.6-0.4-1.2-0.9-1.4-0.8-0.4-2.2-1-2.6-1.3-0.5-0.3-1.1-0.4-1.6-0.1-0.5 0.3-0.8 0.8-0.8 1.4v12.8c0 0.2 0 0.3 0.1 0.5-1 2.1-1.6 4.5-1.6 6.8 0 5 2.3 9.4 5.9 12.3L29.4 78.2c-0.1 3.1 2.2 5.9 6.5 7.9 3.8 1.8 8.8 2.7 14.2 2.7 5.3 0 10.4-1 14.2-2.7C68.5 84.2 70.8 81.3 70.6 78.2zM38.7 15.9c0.2 1.2 0.6 2.2 1.2 3.1 1 1.3 2.4 2.1 3.9 2.1 2.7 0 4.6-1.5 5.1-4 0.7 0 1.3 0 2 0 0.5 2.5 2.4 4 5.1 4 1.5 0 2.9-0.7 3.9-2.1 0.6-0.9 1-1.9 1.2-3.1v8.7c-2.9 1.8-7.7 2.6-11.3 2.6-4.9 0-9-1.2-11.3-2.6v-8.7H38.7zM37.2 32.8c0-1.7 0.3-3.4 1-4.9 2.6 1.3 6.7 2.5 11.8 2.5s9.2-1.2 11.8-2.5c0.7 1.6 1 3.2 1 4.9 0 7-5.7 12.7-12.8 12.7S37.2 39.8 37.2 32.8zM50 85.8c-10.1 0-17.3-3.7-17.6-7.2l10.3-31.9c2.2 1.1 4.7 1.8 7.3 1.8s5.1-0.6 7.3-1.8l10.3 31.9C67.3 82.1 60.1 85.8 50 85.8z" fill="#ffffff" data-fill-palette-color="quaternary"></path></g><g fill="#ffffff" data-fill-palette-color="quaternary"><path d="M70.7 72.2l-10.6-33c3.6-2.9 5.9-7.3 5.9-12.3 0-8.7-7.1-15.8-15.9-15.8-8.7 0-15.9 7.1-15.9 15.8 0 5 2.3 9.4 5.9 12.3l-10.6 33c0 0.2-0.1 0.3-0.1 0.5 0 3 2.3 5.7 6.5 7.7 1.4 0.7 3 1.2 4.7 1.6v5.5c0 0.8 0.7 1.5 1.5 1.5 0.8 0 1.5-0.7 1.5-1.5v-4.8c2 0.3 4.2 0.5 6.4 0.5 5.3 0 10.4-1 14.2-2.7 4.2-1.9 6.5-4.7 6.5-7.7C70.7 72.5 70.7 72.4 70.7 72.2zM37.2 27c0-7 5.7-12.7 12.8-12.7S62.8 20 62.8 27s-5.7 12.7-12.8 12.7S37.2 34 37.2 27zM50.1 80.1c-2.3 0-4.4-0.2-6.4-0.5V61.7c0-2.9 2.4-5.2 5.2-5.2 2.9 0 5.2 2.4 5.2 5.2 0 0.8 0.7 1.5 1.5 1.5 0.8 0 1.5-0.7 1.5-1.5 0-4.6-3.7-8.3-8.3-8.3s-8.3 3.7-8.3 8.3v17.2c-4.9-1.4-7.9-3.7-8.1-5.9l10.3-31.9c2.2 1.1 4.7 1.8 7.3 1.8s5.1-0.6 7.3-1.8L67.6 73C67.4 76.2 60.2 80.1 50.1 80.1z" fill="#ffffff" data-fill-palette-color="quaternary"></path></g></svg></g></svg></g><g id="text-0"><path d="M33.908 104.639c-0.646 2.024-1.71 3.371-3.192 4.041-1.482 0.67-3.298 0.662-5.448-0.024v0l-1.518-0.484 1.259-3.947 1.821 0.581c1.72 0.549 2.81 0.102 3.271-1.339v0c0.226-0.708 0.189-1.313-0.112-1.813-0.3-0.5-0.919-0.899-1.854-1.198v0c-1.113-0.355-2.174-0.415-3.183-0.179-1.009 0.236-2.326 0.847-3.951 1.833v0c-2.067 1.236-3.823 2-5.267 2.292-1.445 0.292-2.939 0.191-4.482-0.301v0c-2.1-0.67-3.556-1.72-4.368-3.15-0.812-1.43-0.895-3.157-0.25-5.18v0c0.638-1.999 1.695-3.327 3.173-3.984 1.478-0.657 3.292-0.643 5.443 0.043v0l1.1 0.351-1.259 3.947-1.366-0.436c-0.911-0.291-1.631-0.325-2.162-0.105-0.53 0.221-0.905 0.673-1.122 1.357v0c-0.444 1.391 0.182 2.357 1.877 2.898v0c0.961 0.307 1.942 0.334 2.942 0.081 1-0.252 2.313-0.872 3.938-1.858v0c2.075-1.261 3.837-2.023 5.286-2.286 1.449-0.262 3.009-0.127 4.679 0.406v0c2.176 0.694 3.674 1.764 4.494 3.211 0.821 1.446 0.904 3.194 0.251 5.243z" fill="#000000" data-fill-palette-color="primary"></path><path d="M41.214 86.305l-24.022-14.155 6.066-10.295 3.431 2.022-3.841 6.521 6.348 3.74 3.054-5.182 3.431 2.022-3.053 5.182 7.378 4.348 3.842-6.521 3.432 2.023z" fill="#000000" data-fill-palette-color="primary"></path><path d="M55.434 65.783l-20.116-19.307 3.807-3.966 14.992 8.482 0.055-0.058-12.041-11.556 2.703-2.817 20.116 19.307-3.117 3.248-18.325-10.301-0.055 0.057 14.684 14.094z" fill="#000000" data-fill-palette-color="primary"></path><path d="M76.188 47.236l-15.681-23.055 3.623-2.464 15.681 23.054z" fill="#000000" data-fill-palette-color="primary"></path><path d="M98.33 36.022c-1.989 0.82-3.743 0.883-5.265 0.188-1.521-0.694-2.707-2.072-3.557-4.134v0l-5.586-13.552c-0.85-2.062-0.98-3.876-0.39-5.44 0.59-1.564 1.879-2.757 3.868-3.577v0c1.989-0.82 3.743-0.883 5.265-0.188 1.521 0.694 2.707 2.072 3.557 4.135v0l5.586 13.551c0.85 2.062 0.98 3.876 0.39 5.44-0.59 1.564-1.879 2.757-3.868 3.577zM96.812 32.339c1.399-0.577 1.75-1.712 1.052-3.406v0l-5.799-14.067c-0.698-1.694-1.747-2.253-3.147-1.676v0c-1.399 0.577-1.75 1.712-1.052 3.406v0l5.799 14.068c0.698 1.694 1.747 2.253 3.147 1.675z" fill="#000000" data-fill-palette-color="primary"></path><path d="M117.358 29.843l-4.246-27.557 6.417-0.988c2.231-0.344 3.938-0.076 5.121 0.803 1.183 0.879 1.941 2.394 2.273 4.546v0l0.26 1.693c0.441 2.861-0.225 4.817-1.997 5.869v0l0.012 0.079c1.098 0.153 1.939 0.682 2.522 1.586 0.583 0.904 0.999 2.17 1.25 3.798v0l0.746 4.842c0.121 0.787 0.246 1.42 0.372 1.897 0.127 0.477 0.332 0.936 0.615 1.376v0l-4.409 0.68c-0.226-0.422-0.396-0.826-0.509-1.212-0.113-0.386-0.249-1.09-0.406-2.113v0l-0.776-5.039c-0.194-1.26-0.533-2.108-1.017-2.544-0.484-0.436-1.224-0.577-2.221-0.423v0l-1.496 0.23 1.819 11.81zM119.262 13.429l1.575-0.242c0.866-0.133 1.481-0.457 1.846-0.97 0.364-0.513 0.466-1.294 0.303-2.344v0l-0.327-2.126c-0.154-0.997-0.442-1.692-0.865-2.083-0.423-0.392-1.015-0.529-1.776-0.411v0l-1.969 0.303z" fill="#000000" data-fill-palette-color="primary"></path><path d="M149.416 28.603c-2.117-0.177-3.668-0.912-4.652-2.207-0.985-1.295-1.383-3.066-1.196-5.316v0l0.133-1.588 4.128 0.345-0.159 1.905c-0.15 1.799 0.529 2.762 2.037 2.888v0c0.741 0.062 1.321-0.11 1.742-0.514 0.42-0.405 0.671-1.097 0.753-2.076v0c0.097-1.164-0.082-2.212-0.538-3.142-0.455-0.931-1.346-2.077-2.671-3.441v0c-1.667-1.738-2.804-3.278-3.411-4.621-0.607-1.343-0.844-2.822-0.709-4.436v0c0.183-2.196 0.881-3.85 2.092-4.962 1.212-1.111 2.876-1.579 4.993-1.402v0c2.091 0.174 3.621 0.908 4.593 2.202 0.971 1.293 1.363 3.065 1.176 5.314v0l-0.096 1.151-4.128-0.344 0.119-1.429c0.079-0.953-0.048-1.663-0.382-2.13-0.334-0.468-0.858-0.731-1.573-0.791v0c-1.455-0.121-2.257 0.704-2.405 2.477v0c-0.084 1.006 0.109 1.968 0.579 2.887 0.47 0.919 1.367 2.059 2.692 3.422v0c1.693 1.74 2.83 3.287 3.41 4.641 0.58 1.354 0.797 2.904 0.651 4.651v0c-0.19 2.276-0.898 3.975-2.124 5.099-1.226 1.123-2.911 1.596-5.054 1.417z" fill="#000000" data-fill-palette-color="primary"></path><path d="M168.86 31.61l8.538-26.542 6.142 1.975c2.073 0.667 3.449 1.723 4.128 3.169 0.679 1.446 0.672 3.243-0.019 5.392v0l-0.842 2.616c-0.691 2.149-1.734 3.613-3.128 4.391-1.394 0.779-3.128 0.835-5.2 0.169v0l-1.972-0.635-3.476 10.807zM177.727 18.353l1.971 0.635c0.683 0.22 1.255 0.195 1.719-0.075 0.463-0.269 0.841-0.859 1.134-1.769v0l1.012-3.148c0.293-0.91 0.329-1.61 0.11-2.098-0.219-0.489-0.67-0.843-1.352-1.063v0l-1.972-0.634z" fill="#000000" data-fill-palette-color="primary"></path><path d="M192.827 41.294l14.47-23.833 3.745 2.274-5.891 9.703 4.017 2.439 5.892-9.703 3.745 2.274-14.47 23.833-3.746-2.274 6.512-10.725-4.018-2.439-6.511 10.725z" fill="#000000" data-fill-palette-color="primary"></path><path d="M214.896 57.109l19.672-19.759 8.469 8.431-2.811 2.823-5.363-5.34-5.199 5.222 4.262 4.244-2.81 2.822-4.262-4.243-6.042 6.069 5.363 5.339-2.81 2.823z" fill="#000000" data-fill-palette-color="primary"></path><path d="M231.254 75.988l23.681-14.717 3.428 5.514c1.191 1.917 1.615 3.592 1.27 5.025-0.344 1.433-1.441 2.725-3.29 3.874v0l-1.455 0.904c-2.458 1.528-4.519 1.683-6.182 0.466v0l-0.068 0.042c0.29 1.07 0.133 2.051-0.47 2.942-0.603 0.891-1.604 1.771-3.002 2.64v0l-4.161 2.586c-0.677 0.421-1.21 0.783-1.599 1.087-0.389 0.304-0.731 0.673-1.024 1.106v0l-2.355-3.789c0.299-0.374 0.604-0.688 0.914-0.944 0.31-0.255 0.905-0.656 1.785-1.203v0l4.33-2.691c1.083-0.673 1.729-1.317 1.941-1.933 0.211-0.616 0.051-1.352-0.482-2.209v0l-0.799-1.286-10.149 6.308zM247.099 71.3l0.841 1.353c0.463 0.744 1.001 1.183 1.616 1.317 0.615 0.134 1.373-0.08 2.275-0.64v0l1.827-1.136c0.857-0.533 1.383-1.07 1.577-1.613 0.194-0.543 0.088-1.141-0.319-1.795v0l-1.051-1.692z" fill="#000000" data-fill-palette-color="primary"></path><path d="M243.587 99.512l26.428-8.887 3.809 11.326-3.775 1.27-2.413-7.173-6.984 2.348 1.917 5.701-3.776 1.27-1.917-5.701-8.117 2.729 2.412 7.174-3.775 1.269z" fill="#000000" data-fill-palette-color="primary"></path><path d="M10.674 139.889c0-1.79 1.451-3.241 3.241-3.241 1.79 0 3.241 1.451 3.24 3.241 0 1.79-1.451 3.241-3.24 3.241-1.79 0-3.241-1.451-3.241-3.241z" fill="#000000" data-fill-palette-color="primary"></path><path d="M261.618 139.889c0-1.79 1.451-3.241 3.241-3.241 1.79 0 3.241 1.451 3.241 3.241 0 1.79-1.451 3.241-3.241 3.241-1.79 0-3.241-1.451-3.241-3.241z" fill="#000000" data-fill-palette-color="primary"></path></g><g id="text-1"><path d="M6.429 184.032c-0.657-2.055-0.569-3.794 0.265-5.218 0.832-1.43 2.336-2.493 4.51-3.189v0l1.546-0.494 1.28 4.002-1.849 0.592c-1.745 0.558-2.384 1.568-1.917 3.028v0c0.231 0.721 0.617 1.2 1.16 1.438 0.543 0.238 1.289 0.205 2.238-0.099v0c1.132-0.362 2.046-0.937 2.741-1.724 0.688-0.792 1.414-2.073 2.179-3.844v0c0.985-2.239 1.986-3.901 3.005-4.986 1.023-1.094 2.319-1.892 3.887-2.393v-0.001c2.125-0.68 3.945-0.666 5.461 0.042 1.514 0.701 2.599 2.079 3.256 4.133v0c0.647 2.023 0.553 3.744-0.283 5.162-0.838 1.411-2.345 2.465-4.52 3.16v0l-1.119 0.358-1.281-4.003 1.385-0.442c0.923-0.295 1.539-0.691 1.847-1.187 0.308-0.496 0.352-1.088 0.132-1.778v0c-0.451-1.41-1.536-1.84-3.256-1.29v0c-0.974 0.311-1.8 0.865-2.48 1.661-0.679 0.796-1.402 2.079-2.166 3.85v0c-0.97 2.262-1.977 3.929-3.021 5.002-1.046 1.066-2.413 1.87-4.101 2.41v0c-2.207 0.706-4.075 0.704-5.606-0.005-1.532-0.716-2.63-2.11-3.293-4.185z" fill="#000000" data-fill-palette-color="primary"></path><path d="M17.026 207.735l24.357-14.369 6.158 10.438-3.482 2.054-3.896-6.604-6.433 3.794 3.097 5.249-3.482 2.055-3.097-5.249-7.479 4.412 3.896 6.604-3.482 2.054z" fill="#000000" data-fill-palette-color="primary"></path><path d="M35.165 233.426l20.395-19.592 3.863 4.021-9.214 14.844 0.055 0.058 12.208-11.728 2.746 2.858-20.395 19.592-3.16-3.289 11.189-18.149-0.055-0.058-14.886 14.301z" fill="#000000" data-fill-palette-color="primary"></path><path d="M60.386 255.755l15.905-23.384 3.68 2.503-15.905 23.384z" fill="#000000" data-fill-palette-color="primary"></path><path d="M87.275 270.441c-2.013-0.831-3.319-2.042-3.919-3.633-0.594-1.588-0.46-3.426 0.401-5.511v0l5.676-13.752c0.861-2.086 2.063-3.483 3.604-4.19 1.548-0.704 3.328-0.641 5.341 0.19v0c2.019 0.833 3.328 2.045 3.928 3.636 0.594 1.588 0.46 3.426-0.401 5.512v0l-5.676 13.752c-0.861 2.086-2.063 3.483-3.604 4.189-1.548 0.704-3.331 0.64-5.35-0.193zM88.818 266.704c1.424 0.588 2.49 0.022 3.199-1.696v0l5.89-14.267c0.709-1.718 0.352-2.871-1.072-3.459v0c-1.418-0.585-2.481-0.019-3.19 1.7v0l-5.889 14.267c-0.709 1.718-0.355 2.87 1.062 3.455z" fill="#000000" data-fill-palette-color="primary"></path><path d="M112.942 277.659l4.319-27.948 6.515 1.006c2.263 0.35 3.832 1.13 4.707 2.34 0.873 1.216 1.142 2.914 0.805 5.092v0l-0.266 1.722c-0.448 2.9-1.69 4.589-3.726 5.067v0l-0.012 0.079c1.014 0.479 1.665 1.245 1.953 2.296 0.286 1.059 0.302 2.411 0.048 4.058v0l-0.759 4.911c-0.124 0.8-0.197 1.451-0.221 1.951-0.024 0.5 0.036 1.006 0.179 1.519v0l-4.478-0.692c-0.087-0.477-0.127-0.92-0.117-1.328 0.009-0.408 0.094-1.131 0.254-2.167v0l0.789-5.108c0.198-1.279 0.129-2.204-0.206-2.773-0.335-0.569-1.008-0.932-2.019-1.087v0l-1.515-0.235-1.851 11.977zM119.809 262.367l1.595 0.246c0.879 0.136 1.573 0.011 2.083-0.373 0.51-0.385 0.846-1.109 1.01-2.171v0l0.333-2.156c0.156-1.01 0.089-1.77-0.202-2.278-0.291-0.508-0.823-0.822-1.597-0.942v0l-1.988-0.307z" fill="#000000" data-fill-palette-color="primary"></path><path d="M151.761 279.964c-2.15 0.178-3.825-0.299-5.025-1.432-1.206-1.132-1.904-2.836-2.092-5.113v0l-0.134-1.617 4.188-0.347 0.16 1.935c0.151 1.826 0.991 2.676 2.519 2.549v0c0.754-0.063 1.308-0.332 1.662-0.808 0.354-0.476 0.489-1.21 0.407-2.202v0c-0.098-1.184-0.453-2.204-1.063-3.059-0.617-0.848-1.702-1.844-3.255-2.988v0c-1.96-1.463-3.354-2.813-4.183-4.049-0.836-1.243-1.322-2.685-1.458-4.326v0c-0.184-2.223 0.238-3.993 1.269-5.311 1.023-1.317 2.61-2.065 4.76-2.243v0c2.117-0.176 3.772 0.303 4.965 1.437 1.186 1.134 1.874 2.839 2.063 5.115v0l0.097 1.171-4.188 0.347-0.12-1.449c-0.08-0.966-0.327-1.655-0.741-2.067-0.414-0.412-0.981-0.588-1.702-0.528v0c-1.475 0.122-2.138 1.083-1.99 2.882v0c0.084 1.019 0.438 1.949 1.061 2.79 0.623 0.841 1.711 1.833 3.264 2.977v0c1.986 1.454 3.384 2.81 4.195 4.069 0.804 1.259 1.279 2.772 1.425 4.538v0c0.191 2.309-0.231 4.129-1.266 5.461-1.042 1.332-2.648 2.088-4.818 2.268z" fill="#000000" data-fill-palette-color="primary"></path><path d="M177.298 274.943l-8.642-26.927 6.239-2.003c2.099-0.673 3.857-0.614 5.276 0.179 1.41 0.788 2.466 2.273 3.165 4.454v0l0.852 2.655c0.7 2.181 0.706 4.002 0.017 5.464-0.693 1.47-2.088 2.542-4.186 3.215v0l-2.001 0.643 3.518 10.96zM176.783 258.773l2-0.642c0.689-0.221 1.145-0.58 1.37-1.077 0.224-0.497 0.188-1.207-0.109-2.131v0l-1.025-3.195c-0.296-0.923-0.679-1.518-1.148-1.786-0.471-0.274-1.052-0.3-1.741-0.079v0l-2.001 0.642z" fill="#000000" data-fill-palette-color="primary"></path><path d="M207.243 262.573l-14.66-24.184 3.806-2.308 5.968 9.844 4.07-2.467-5.967-9.844 3.806-2.308 14.66 24.185-3.806 2.307-6.597-10.883-4.071 2.468 6.597 10.882z" fill="#000000" data-fill-palette-color="primary"></path><path d="M234.582 242.685l-19.937-20.057 8.594-8.544 2.851 2.868-5.438 5.405 5.265 5.297 4.322-4.296 2.85 2.867-4.322 4.296 6.122 6.159 5.438-5.406 2.85 2.867z" fill="#000000" data-fill-palette-color="primary"></path><path d="M254.992 218.775l-24.007-14.949 3.485-5.596c1.211-1.944 2.544-3.081 4-3.409 1.462-0.325 3.128 0.094 4.999 1.259v0l1.479 0.921c2.491 1.551 3.556 3.356 3.197 5.416v0l0.068 0.042c0.839-0.745 1.799-1.042 2.879-0.894 1.086 0.152 2.336 0.669 3.751 1.55v0l4.218 2.626c0.688 0.428 1.257 0.751 1.707 0.97 0.451 0.218 0.94 0.362 1.467 0.432v0l-2.395 3.846c-0.473-0.107-0.896-0.245-1.267-0.414-0.372-0.169-1.003-0.531-1.894-1.085v0l-4.387-2.731c-1.099-0.684-1.976-0.984-2.631-0.899-0.655 0.085-1.253 0.561-1.793 1.429v0l-0.81 1.301 10.287 6.406zM243.626 206.453l0.852-1.369c0.47-0.755 0.628-1.443 0.475-2.062-0.154-0.62-0.687-1.214-1.6-1.783v0l-1.851-1.152c-0.868-0.54-1.593-0.777-2.175-0.709-0.582 0.068-1.08 0.434-1.494 1.099v0l-1.063 1.708z" fill="#000000" data-fill-palette-color="primary"></path><path d="M270.132 189.404l-26.796-9.04 3.873-11.483 3.831 1.292-2.451 7.265 7.077 2.388 1.948-5.775 3.831 1.293-1.948 5.774 8.227 2.776 2.451-7.266 3.831 1.293z" fill="#000000" data-fill-palette-color="primary"></path></g></svg></g></svg></g></svg></g><g></g></svg></g><defs></defs></svg><rect width="280" height="280" fill="none" stroke="none" visibility="hidden"></rect></g></svg></g></svg>